<?xml version="1.0" encoding="utf-8"?>
<!-- Generator: Adobe Illustrator 23.0.2, SVG Export Plug-In . SVG Version: 6.00 Build 0)  -->
<svg version="1.1" id="Layer_1" xmlns="http://www.w3.org/2000/svg" xmlns:xlink="http://www.w3.org/1999/xlink" x="0px" y="0px"
	 viewBox="0 0 256 256" style="enable-background:new 0 0 256 256;" xml:space="preserve">
<style type="text/css">
	.st0{fill:#FFFFFF;}
</style>
<path class="st0" d="M193.6,149.5H62l13.5,71.6c0,0,0.6,6.3,5,6.3h94.4c0,0,4.4,1.4,5.5-6.3L193.6,149.5z M205.5,116.8H49.3
	c0,0-4.4-0.3-3.6,3.6l4.1,20.4c0.9,2,2.6,3.4,4.7,3.9h145.1c0,0,4.9,0.7,6.3-4l4.3-20.6C210.3,120,211.6,116.1,205.5,116.8z
	 M109.4,111.9h36.9c0,0,5.6-19.5-18.4-37.6C128,74.3,106.5,86.3,109.4,111.9z M104.7,111.9c0,0-2.4-8.2,2.6-20.5
	c0,0-10-7.9-27.4-12.8c0,0-6.6,18.3,5.7,33.3L104.7,111.9z M79.7,111.9c0,0-5.8-6.4-6.2-23.2c0,0-16.4-4.4-29.2-4.8
	c2.8,11.6,10,21.7,20.1,28L79.7,111.9z"/>
<path class="st0" d="M73.8,83.9l2-8.6c0.5-1.4,2-2.2,3.4-1.8l8,2.5c-1.5-3.7-2.5-7.5-3-11.5c0,0-15.6-6.9-20.5-7.6
	c0,0-2.3,16,2.8,25.1L73.8,83.9z M109.2,87c0,0,8.8-12.2,14.5-15.8c-8.1-12.4-19-22.8-31.8-30.3c0,0-8.4,19,1.6,37.7
	C99,80.8,104.3,83.6,109.2,87z M128,68.7c0,0,6.8-11.2,14.5-17.4c0,0-5.6-15-14.5-22.8c0,0-10.7,10.4-14.5,22.7
	C113.5,51.2,124.1,60,128,68.7z M146.9,87c0,0,7.4-6.2,15.5-8.3c6.1-11.7,6.7-25.6,1.6-37.8c0,0-23.3,14.4-31.9,30.3
	C132.1,71.2,142.6,81.8,146.9,87z M171.7,64.6c0,0,14.5-6.1,20.4-7.3c0,0,3.2,13-2.7,25l-7,1.6l-2.4-8.2c0.2-1-0.5-2-1.5-2.2
	c-0.4-0.1-0.8,0-1.1,0.1l-8.8,2.5C168.6,76.1,171.1,73.4,171.7,64.6z"/>
<path class="st0" d="M148.5,91.4c8.3-6,17.6-10.4,27.6-12.8c0,0,6.6,19.1-5.6,33.3h-19.2C151.2,111.9,154,97.8,148.5,91.4z
	 M182.4,89c0,0,16.4-4.7,29.2-5.1c0,0-4,18.9-19.7,28h-15.4C176.4,111.9,184.9,99,182.4,89z"/>
</svg>
