<?xml version="1.0" encoding="utf-8"?>
<!-- Generator: Adobe Illustrator 23.0.2, SVG Export Plug-In . SVG Version: 6.00 Build 0)  -->
<svg version="1.1" id="Layer_1" xmlns="http://www.w3.org/2000/svg" xmlns:xlink="http://www.w3.org/1999/xlink" x="0px" y="0px"
	 viewBox="0 0 256 256" style="enable-background:new 0 0 256 256;" xml:space="preserve">
<style type="text/css">
	.st0{fill:#FFFFFF;}
</style>
<circle class="st0" cx="80.6" cy="202.6" r="13"/>
<circle class="st0" cx="206.2" cy="202.6" r="13"/>
<path class="st0" d="M147.2,161.2h60.1c0,0,13.2,1.6,16.5-10.1l14.9-71c0,0,5.3-17.1-15.2-17.1h-76.3L147.2,161.2L147.2,161.2z"/>
<path class="st0" d="M154.4,161.2H94.3c0,0-13.2,1.6-16.5-10.1l-14.9-71c0,0-5.3-17.1,15.2-17.1h76.3V161.2z"/>
<path class="st0" d="M212.5,180.1c0,0,7.1,0,7.1-6.2s-7.1-5.8-7.1-5.8H84.8c0,0-12,0-13.6-10.9S49.9,58.3,49.9,58.3S48.7,49,37.5,49
	H20.4c0,0-7.3-0.5-7.3,5.6s7.9,5.5,7.9,5.5h12.6c0,0,7.3-0.9,8.4,6.8s19.5,98.3,19.5,98.3s2.4,14.9,29.9,14.9H212.5z"/>
</svg>
