<svg xmlns="http://www.w3.org/2000/svg"><symbol id="about" viewBox="0 0 256 256"><style>.st0{fill:#1d3e39}</style><path d="M50.6 109.2l22.3 104.3s.9 6.3 5 6.3h94.4s4.3.4 5.5-6.3 21.9-104.3 21.9-104.3H50.6zm119.2 98c-1.1 5.7-4.7 5.4-4.7 5.4H84.7c-3.5 0-4.3-5.4-4.3-5.4l-19-88.9h127c0 .1-17.5 83.2-18.6 88.9zm-58.7-98L54.7 51.7l11.8 57.5h3.7L61 64.7l43.7 44.5zm28.5 0L196 51.7l-11.8 57.5h-3.7l9.1-44.5-43.6 44.5z" class="st0"/><path d="M125 20.6l39.1 63.7 3.7-3.8L125 10.9 84.8 82.4l3.4 3.5zm-45.5 9.3l24.4 18.5 1.8-3.2-28.3-21.6-7.9 43.3 3 3z" class="st0"/><path d="M171.3 29.9L147 48.4l-1.8-3.2 28.2-21.6 7.9 43.3-3 3zM61.5 109.2L46.9 40l72.6 69.2h-14.8L61 64.7l9.2 44.5z" class="st0"/><path d="M189.1 109.2L203.7 40l-72.6 69.2h14.8l43.6-44.5-9.1 44.5z" class="st0"/><path d="M82.9 74.3L125 2.4l44.4 70.3-7.7 7.8L125 20.6 90.6 81.7zM66.7 58.8l7.5-41.6L104.1 38l-4.3 7.3-20.3-15.4-6.2 35.3z" class="st0"/><path d="M184.1 58.8l-7.6-41.6L146.6 38l4.3 7.3 20.3-15.4 6.2 35.3z" class="st0"/></symbol><symbol id="facebook" viewBox="0 0 256 256"><defs><style>.cls-1{fill:#1c3e38}</style></defs><path d="M212.65 42.33h-164a3.91 3.91 0 0 0-4.21 4.21v163.34a3.51 3.51 0 0 0 3.79 3.79h84.9a3.08 3.08 0 0 0 3.3-3.3v-69.3a4.31 4.31 0 0 0-4.57-4.57H117.7v-15.84h13.57s4.51.66 4.51-4.51v-7.81s-4-37.92 44-37.92v17.75s-24.66-.24-24.66 18.62v10.86a2.77 2.77 0 0 0 3 3h21.64v16.65h-21.43s-3.13.13-3.13 3.13v68.81a4.12 4.12 0 0 0 4.41 4.41H213a3.25 3.25 0 0 0 3.47-3.46V46.13a3.66 3.66 0 0 0-3.82-3.8zM208 205.48h-44.37v-59.79h18.5s6 .38 6-4.39v-24.42s-.29-4.22-4.22-4.22h-20.3v-6S163.89 96 178 96h6.56a3.43 3.43 0 0 0 3.63-3.64V65.75s-.06-3.3-3.3-3.3h-14.78s-42.41.74-42.41 49.55h-13.48s-4.32.09-4.32 4.32v24.6s.18 4 4 4h13.86v60.58H52.88V50H208z" class="cls-1"/></symbol><symbol id="bag1" viewBox="0 0 256 256"><defs><style>.cls-1{fill:#1c3e38}</style></defs><path d="M184.79 76.18H166V46.74c0-9.19-9.09-9-9.09-9H99c-9.14 0-8.15 8.15-8.15 8.15v30.29H71.08s-5.4-.83-5.4 4.83v123.53s-.58 4.51 4.56 4.51h116.52a3.34 3.34 0 0 0 3.58-3.58V79.82s-.15-3.64-5.55-3.64zm-34.53-30.32c6.54 0 6.64 6.64 6.64 6.64v23.68H98.44V53c0-6.7 6.59-7.11 6.59-7.11zm31.67 155.2H73.78V84.13h108.15z" class="cls-1"/></symbol><symbol id="heart" viewBox="0 0 256 256"><defs><style>.cls-1{fill:#1c3e38}</style></defs><path d="M128 61.63v.22C98.84 29.69 40.13 37.58 40.13 98.23S128 213 128 213v-.22S215.87 158.66 215.87 98 157.16 29.47 128 61.63zm0 140.69S51 152.44 48.63 101s55.1-63.6 79.37-25.89c24.27-37.71 81.65-25.6 79.37 25.89S128 202.32 128 202.32z" class="cls-1"/></symbol><symbol id="instagram" viewBox="0 0 256 256"><defs><style>.cls-1{fill:#1c3e38}</style></defs><path d="M171.06 46.32H81.82S41.66 46 41.66 89.57v89.58s3.78 38.79 40.5 38.79h88.9s42.56.34 42.56-41.88V89.22s3.44-42.9-42.56-42.9zm34.88 43.59v84.31c0 36.25-35.56 35.57-35.56 35.57H84.14c-33.38 0-34.41-34.41-34.41-34.41V88.71c0-35.53 34.49-34.5 34.49-34.5h43.45s3.58-.45 42.13-.45 36.14 36.15 36.14 36.15z" class="cls-1"/><path d="M127.85 86.42a45.71 45.71 0 1 0 45.71 45.71 45.71 45.71 0 0 0-45.71-45.71zm-.18 83.13a37.42 37.42 0 1 1 37.42-37.42 37.43 37.43 0 0 1-37.42 37.42z" class="cls-1"/><circle cx="176.9" cy="79.5" r="9.41" class="cls-1"/></symbol><symbol id="search" viewBox="0 0 256 256"><defs><style>.cls-1{fill:#1c3e38}</style></defs><path d="M157.68 152.89l44.86 44.86s2.79 2.47 5.26 0 0-5.43 0-5.43l-44.62-44.62z" class="cls-1"/><path d="M114.58 38.31a67.48 67.48 0 1 0 67.48 67.48 67.48 67.48 0 0 0-67.48-67.48zm0 127.32c-33 0-59.72-26.95-59.72-60.19s26.74-60.19 59.72-60.19 59.71 27 59.71 60.19-26.7 60.19-59.68 60.19z" class="cls-1"/></symbol><symbol id="twitter" viewBox="0 0 256 256"><defs><style>.cls-1{fill:#1c3e38}</style></defs><path d="M223.73 64.12c-2.53 2 4.64-6 4.31-11.84s-6.17-6.67-9.84-4-9.67 8-19.34 7c0 0-11.46-14-33.5-12.67S121.64 59 122.81 93.14c0 0-43.86 2.83-77.38-40.52 0 0-2-2.81-4.35-2.67s-4.85 1.47-6.69 9.64-3.71 31.65 5.88 42.9c0 0-5.14-2.09-7.37.88s-4.65 24.7 19.17 41.14c0 0-7.61 1.1-5 6.61s11.58 25.81 31.32 28.23c0 0-14.08 13.52-49.38 10 0 0-9.17 1.18-4.67 7.77s177 70.32 190.37-108.3c0 0 16.62-10.16 18-18.66s-6.46-8.04-8.98-6.04zm-64.82 120.94c-50.11 35.08-103.42 13.46-103.42 13.46 19.93-1.55 33.29-11.93 38.3-18.61s-3.58-8.47-3.58-8.47c-23.86-1.67-28.39-16.59-28.39-16.59 21-6.08 8.35-13 8.35-13-27.44-8.11-27.56-27.2-27.56-27.2H53c10.38-2 3.7-8.59 3.7-8.59-22-17.18-12.94-40.37-12.94-40.37 33.79 38.69 75 37.36 82.86 37.36s6.5-6.78 6.5-6.78c-1.94-26.16 12.18-43.6 33.08-44.15s25.33 12.45 30.31 13.56 14.39-2.21 14.39-2.21-8.72 5.67-7.75 10.93 11.21 2.35 11.21 2.35l-9.41 7.61S209 150 158.91 185.06z" class="cls-1"/></symbol></svg>