<svg xmlns="http://www.w3.org/2000/svg"><symbol id="hamburger-close" viewBox="0 0 256 256"><defs><style>.cls-1{fill:#666766}</style></defs><path d="M-22.73 106h294.6v41.26h-294.6z" class="cls-1" transform="rotate(45 124.565 126.637)"/><path d="M-22.73 106h294.6v41.26h-294.6z" class="cls-1" transform="rotate(-45 124.564 126.634)"/></symbol><symbol id="facebook" viewBox="0 0 256 256"><defs><style>.cls-1{fill:#666766}</style></defs><path d="M125.4 253.06v-88.48h-22.12s-5.87-1.36-5.87-5.42v-29.34a5.46 5.46 0 0 1 5.87-5.42h22.12V88.74s-.9-42 46.95-42h27.09s5.42.9 5.42 5.42V76.1s-.45 6.32-5 6.32h-19.38s-14.22.45-14.22 14.22l-.68 27.36 32.51-.45s7.39-.69 7.39 8l-3.14 26.36s-1.28 6.27-6.27 6.27h-30.49v88.93h57.22s30.46-1.7 30.46-30.46V39.28S255 4.1 218.07 4.1H32.58S1.77 5.88 1.77 37v184s.47 31.7 31.69 31.7 91.94.36 91.94.36z" class="cls-1"/></symbol><symbol id="hamburger-open" viewBox="0 0 256 256"><defs><style>.cls-1{fill:#666766}</style></defs><path d="M8.68 19.94h238.65v33.43H8.68zm0 91.35h238.65v33.43H8.68zm0 91.35h238.65v33.43H8.68z" class="cls-1"/></symbol><symbol id="twitter" viewBox="0 0 256 256"><defs><style>.cls-1{fill:#666766}</style></defs><path d="M239.21 4.1H18.74S4.1 4.43 4.1 18.55v220.3s2.64 13.38 13.78 13.38h221.33s12.5-2.35 12.5-13.13V17.42a14.4 14.4 0 0 0-12.5-13.32zM189.5 96.81c.28 50.56-34.08 74.3-34.08 74.3-54.42 41.34-103.63 5.31-103.63 5.31C82.24 178.09 97 163 97 163c-25.69-1.4-28.77-21.23-28.77-21.23 10.9.84 12.29-1.39 12.29-1.39-24-5-23.33-30.45-23.33-30.45 8.52 3.91 13.28 3.07 13.28 3.07-22.86-18.14-9.18-41-9.18-41 29.61 34.64 65.08 32.12 65.08 32.12C122.46 80.05 141.73 70 141.73 70 166.87 58.55 180 75.58 180 75.58c6.7.28 20.39-6.42 20.39-6.42 1.4 7.54-12 16.2-12 16.2 5.59 1.12 16.48-4.19 16.48-4.19-.57 6.43-15.37 15.64-15.37 15.64z" class="cls-1"/></symbol><symbol id="instagram" viewBox="0 0 256 256"><defs><style>.cls-1{fill:#666766}</style></defs><path d="M202.3 3.94H55S5.17 8.8 5.17 53.78V194s-5.08 58 55.19 58H202.3s48.6-6 48.6-57.06V57.44s2.92-45.38-48.6-53.5zm17.48 164.6c-3.33 49.46-51.36 51.83-51.36 51.83H87.1c-47.55-1-50.88-50.88-50.88-50.88V88.65C40.5 38.24 87.1 36.81 87.1 36.81h81.32c48 0 51.36 48.51 51.36 48.51z" class="cls-1"/><path d="M166.15 51.83H90.78s-38.73 0-38.73 40.8v74S56 205.35 89.1 205.35h77.05s37.8-1.76 37.8-37.79V92s-2.06-40.17-37.8-40.17zM128 174.57a46 46 0 1 1 46-46 46 46 0 0 1-46 46zm51.08-85.21a11.21 11.21 0 1 1 11.21-11.21 11.21 11.21 0 0 1-11.21 11.21z" class="cls-1"/><circle cx="128" cy="128.16" r="27.44" class="cls-1"/></symbol><symbol id="shoppingcart" viewBox="0 0 256 256"><defs><style>.cls-1{fill:#666766}</style></defs><path d="M145.25 146.1h78.54l24.94-106.39H145.25V146.1z" class="cls-1"/><path d="M152.77 146.1H74.23L49.29 39.71h103.48V146.1z" class="cls-1"/><path d="M77.25 146.1H64.08L36.02 39.71H7.27V50.1h20.78l25.99 96 2.77 9.32h163.86l3.12-9.32-3.81-10.39H77.94l-.69 10.39z" class="cls-1"/><circle cx="90" cy="193.43" r="25.53" class="cls-1"/><circle cx="181.56" cy="193.43" r="25.53" class="cls-1"/></symbol><symbol id="search" viewBox="0 0 256 256"><defs><style>.cls-1{fill:none;stroke:#231f20;stroke-miterlimit:10;stroke-width:10px}.cls-2{fill:#231f20}</style></defs><circle cx="98.99" cy="96.65" r="67.33" class="cls-1"/><path d="M133.35 154.55l59.59 59.58 18.9-18.9-58.25-58.24-20.24 17.56z" class="cls-2"/></symbol><symbol id="about" viewBox="0 0 256 256"><defs><style>.cls-1{fill:#fff}</style></defs><path d="M193.63 149.54H62l13.49 71.59s.56 6.34 5 6.34h94.41s4.41 1.37 5.51-6.34zm11.84-32.77H49.34s-4.41-.28-3.58 3.58l4.13 20.38a6.75 6.75 0 0 0 4.68 3.85h145.11s4.91.7 6.34-4L210.3 120s1.25-3.88-4.83-3.23zm-96.04-4.87h36.92s5.58-19.55-18.35-37.64c0 0-21.49 12.06-18.57 37.64zm-4.75 0s-2.37-8.22 2.56-20.46c0 0-10-7.86-27.41-12.8 0 0-6.58 18.28 5.66 33.26zm-25.03 0s-5.85-6.39-6.22-23.2c0 0-16.44-4.39-29.24-4.76a45.42 45.42 0 0 0 20.11 28z" class="cls-1"/><path d="M73.8 83.94l2-8.58a2.72 2.72 0 0 1 3.36-1.75l8 2.54a45.33 45.33 0 0 1-3-11.47s-15.63-6.9-20.49-7.61c0 0-2.32 16 2.82 25.13zM109.16 87s8.84-12.19 14.53-15.79a95 95 0 0 0-31.78-30.29s-8.44 19 1.61 37.72A77.86 77.86 0 0 1 109.16 87zM128 68.73s6.83-11.17 14.52-17.38c0 0-5.58-15-14.52-22.84 0 0-10.68 10.43-14.52 22.72.03 0 10.6 8.77 14.52 17.5zM146.91 87s7.43-6.23 15.5-8.33A44.42 44.42 0 0 0 164 40.92s-23.34 14.4-31.9 30.29c.03 0 10.49 10.55 14.81 15.79zm24.81-22.37s14.53-6.08 20.36-7.32c0 0 3.23 13-2.73 25l-7 1.61-2.35-8.24a1.9 1.9 0 0 0-2.61-2.11l-8.81 2.48s2.52-2.61 3.14-11.42z" class="cls-1"/><path d="M148.51 91.44a78.66 78.66 0 0 1 27.56-12.8s6.58 19.1-5.59 33.26h-19.24s2.76-14.13-2.73-20.46zM182.4 89s16.38-4.72 29.17-5.09c0 0-4 18.95-19.74 28h-15.39S184.88 99 182.4 89z" class="cls-1"/></symbol><symbol id="home" viewBox="0 0 256 256"><defs><style>.cls-1{fill:#fff}</style></defs><path d="M227.72 126.7s5.16 4.8 1.81 8.15l-7.79 8.32s-3.17 3.9-7.06 0l-83.4-86.82s-4-5.27-9.31 0l-82 86.22a5.08 5.08 0 0 1-7.84 1.22l-8.33-9.31s-2.2-3.9 1.47-6.48l97.44-102.27s3.92-4.9 8.33 0l36.25 37.72V32.83a5 5 0 0 1 5.14-4.41h14a4.38 4.38 0 0 1 4.66 4.66v54.86z" class="cls-1"/><path d="M129.79 64.86s-2.91-3.76-6 0l-72.38 76a12 12 0 0 0-4.1 8.9v62.33s.26 6.67 6.67 6.67h43.9s6.26-.77 6.44-6.78v-50.5s.55-6.74 6.2-6.74H144s6.56.73 6.56 6.56v50.83s.4 6.58 6.58 6.58h43.53a7 7 0 0 0 5.65-7.12v-61.77s.73-3.87-4-8.86z" class="cls-1"/></symbol><symbol id="shop" viewBox="0 0 256 256"><defs><style>.cls-1{fill:#fff}</style></defs><path d="M181.72 81.75H74s-9.82.44-11.56 11.35L50.18 200.64s-.65 13.53 10 13.75h135.5s10.91-.87 9.82-14.62l-12.22-108.2s-.21-8.29-11.56-9.82zM96 76.52h7.42V56.23s2.71-20.94 24.58-21.81c0 0 22.31-1.09 24.27 22v20.1h7.42v-19s-1.53-29.45-31.85-29.45c0 0-27.27-2.18-31.85 28.36z" class="cls-1"/></symbol></svg>