<svg xmlns="http://www.w3.org/2000/svg"><symbol id="hamburger-open" viewBox="0 0 256 256"><defs><style>.cls-1{fill:#666766}</style></defs><path d="M8.68 19.94h238.65v33.43H8.68zm0 91.35h238.65v33.43H8.68zm0 91.35h238.65v33.43H8.68z" class="cls-1"/></symbol><symbol id="facebook" viewBox="0 0 256 256"><defs><style>.cls-1{fill:#666766}</style></defs><path d="M125.4 253.06v-88.48h-22.12s-5.87-1.36-5.87-5.42v-29.34a5.46 5.46 0 0 1 5.87-5.42h22.12V88.74s-.9-42 46.95-42h27.09s5.42.9 5.42 5.42V76.1s-.45 6.32-5 6.32h-19.38s-14.22.45-14.22 14.22l-.68 27.36 32.51-.45s7.39-.69 7.39 8l-3.14 26.36s-1.28 6.27-6.27 6.27h-30.49v88.93h57.22s30.46-1.7 30.46-30.46V39.28S255 4.1 218.07 4.1H32.58S1.77 5.88 1.77 37v184s.47 31.7 31.69 31.7 91.94.36 91.94.36z" class="cls-1"/></symbol><symbol id="hamburger-close" viewBox="0 0 256 256"><defs><style>.cls-1{fill:#666766}</style></defs><path d="M-22.73 106h294.6v41.26h-294.6z" class="cls-1" transform="rotate(45 124.565 126.637)"/><path d="M-22.73 106h294.6v41.26h-294.6z" class="cls-1" transform="rotate(-45 124.564 126.634)"/></symbol><symbol id="instagram" viewBox="0 0 256 256"><defs><style>.cls-1{fill:#666766}</style></defs><path d="M202.3 3.94H55S5.17 8.8 5.17 53.78V194s-5.08 58 55.19 58H202.3s48.6-6 48.6-57.06V57.44s2.92-45.38-48.6-53.5zm17.48 164.6c-3.33 49.46-51.36 51.83-51.36 51.83H87.1c-47.55-1-50.88-50.88-50.88-50.88V88.65C40.5 38.24 87.1 36.81 87.1 36.81h81.32c48 0 51.36 48.51 51.36 48.51z" class="cls-1"/><path d="M166.15 51.83H90.78s-38.73 0-38.73 40.8v74S56 205.35 89.1 205.35h77.05s37.8-1.76 37.8-37.79V92s-2.06-40.17-37.8-40.17zM128 174.57a46 46 0 1 1 46-46 46 46 0 0 1-46 46zm51.08-85.21a11.21 11.21 0 1 1 11.21-11.21 11.21 11.21 0 0 1-11.21 11.21z" class="cls-1"/><circle cx="128" cy="128.16" r="27.44" class="cls-1"/></symbol><symbol id="twitter" viewBox="0 0 256 256"><defs><style>.cls-1{fill:#666766}</style></defs><path d="M239.21 4.1H18.74S4.1 4.43 4.1 18.55v220.3s2.64 13.38 13.78 13.38h221.33s12.5-2.35 12.5-13.13V17.42a14.4 14.4 0 0 0-12.5-13.32zM189.5 96.81c.28 50.56-34.08 74.3-34.08 74.3-54.42 41.34-103.63 5.31-103.63 5.31C82.24 178.09 97 163 97 163c-25.69-1.4-28.77-21.23-28.77-21.23 10.9.84 12.29-1.39 12.29-1.39-24-5-23.33-30.45-23.33-30.45 8.52 3.91 13.28 3.07 13.28 3.07-22.86-18.14-9.18-41-9.18-41 29.61 34.64 65.08 32.12 65.08 32.12C122.46 80.05 141.73 70 141.73 70 166.87 58.55 180 75.58 180 75.58c6.7.28 20.39-6.42 20.39-6.42 1.4 7.54-12 16.2-12 16.2 5.59 1.12 16.48-4.19 16.48-4.19-.57 6.43-15.37 15.64-15.37 15.64z" class="cls-1"/></symbol><symbol id="shoppingcart" viewBox="0 0 256 256"><defs><style>.cls-1{fill:#666766}</style></defs><path d="M145.25 146.1h78.54l24.94-106.39H145.25V146.1z" class="cls-1"/><path d="M152.77 146.1H74.23L49.29 39.71h103.48V146.1z" class="cls-1"/><path d="M77.25 146.1H64.08L36.02 39.71H7.27V50.1h20.78l25.99 96 2.77 9.32h163.86l3.12-9.32-3.81-10.39H77.94l-.69 10.39z" class="cls-1"/><circle cx="90" cy="193.43" r="25.53" class="cls-1"/><circle cx="181.56" cy="193.43" r="25.53" class="cls-1"/></symbol></svg>