<svg xmlns="http://www.w3.org/2000/svg"><symbol id="about" viewBox="0 0 256 256"><defs><style>.cls-1{fill:#1d3e39}</style></defs><path d="M89.23 33.33S80.94 52.09 90.83 71a65.81 65.81 0 0 1 15.7 8.4s8.35-12.5 14.5-15.8c-.03.03-13.19-19.91-31.8-30.27zm16 41.44a60.72 60.72 0 0 0-12-6.4c-7.63-14.27-1.22-28.76-1.22-28.76a73.32 73.32 0 0 1 24.25 23.11c-4.26 2.75-10.98 12.05-10.98 12.05zm24.2-11.14c6.15 3.3 14.5 15.8 14.5 15.8a65.81 65.81 0 0 1 15.7-8.4c9.89-18.94 1.6-37.7 1.6-37.7-18.6 10.36-31.8 30.3-31.8 30.3zm4.69-.91a73.25 73.25 0 0 1 24.26-23.11s6.4 14.49-1.22 28.76a60.51 60.51 0 0 0-12 6.4s-6.69-9.3-11.04-12.05zm-52.59-5.79S66.36 50.27 61 49.33c0 0-2.09 17.28 2.8 25.1l7.3 1.9 2-8.6s1.07-2.53 3.4-1.8l8 2.5s-2.91-7.62-2.97-11.5zm-7 5.3a3.18 3.18 0 0 0-4.25 2.19l-1.35 7.88-3.7-1.3c-2.29-4.36-2.4-18.88-2.4-18.88 1.44.07 16.31 6.24 16.31 6.24 0 1.44 1.72 6.17 1.72 6.17a54.93 54.93 0 0 0-6.31-2.3zm91.61 5.6l8-2.5c2.33-.73 3.4 1.8 3.4 1.8l2 8.6 7.3-1.9c4.89-7.82 2.8-25.1 2.8-25.1-5.33.94-20.5 7.6-20.5 7.6-.06 3.88-3 11.5-3 11.5zm3.68-3.83s1.71-4.73 1.71-6.16c0 0 14.87-6.17 16.31-6.24 0 0-.11 14.52-2.4 18.88l-3.7 1.27-1.37-7.88a3.19 3.19 0 0 0-4.25-2.2 57.52 57.52 0 0 0-6.3 2.33zm-44.49-43.07s-12.43 13.3-14.5 22.7c0 0 12.32 11.16 14.5 17.5 0 0 9.52-15 14.5-17.4 0 0-6.21-15.93-14.5-22.8zm0 35.17c-1.2-4.18-10.87-13.1-10.87-13.1 2.47-9.25 10.87-17 10.87-17 5.36 3 10.87 17.09 10.87 17.09-3.73 1.91-10.87 13.01-10.87 13.01zm-.1 10.63a38.87 38.87 0 0 0-18.5 37.6h36.9s4.28-21.64-18.4-37.6zm13.84 33.66h-27.56a29 29 0 0 1 13.81-28.09c16.95 11.93 13.75 28.09 13.75 28.09zm40.66-18.96c3.48 9.62-5.9 22.9-5.9 22.9h15.4c16-9.91 19.7-28 19.7-28-7.67-.65-29.2 5.1-29.2 5.1zm10.08 19.14h-11.25s6.85-9.7 4.31-16.73c0 0 15.72-4.2 21.33-3.72 0 0-2.72 13.22-14.39 20.45zM41.93 76.35s3.73 18.1 19.7 28H77s-9.38-13.27-5.9-22.9c.03 0-21.49-5.75-29.17-5.1zm4.73 3.79C52.27 79.67 68 83.87 68 83.87c-2.54 7 4.31 16.73 4.31 16.73H61.05c-11.66-7.24-14.39-20.46-14.39-20.46z" class="cls-1"/><path d="M173.43 71c-10.52 1.75-27.6 12.8-27.6 12.8 5.11 5.12 2.8 20.5 2.8 20.5h19.2c12.28-13.44 5.6-33.3 5.6-33.3zm-7 30h-14.58s1.76-11.67-2.12-15.56c0 0 13-8.39 21-9.72-.04.01 5.03 15.07-4.3 25.28zm-83.8 3.33h19.2s-2.31-15.38 2.8-20.5c0 0-17.08-11-27.6-12.8-.03-.03-6.68 19.83 5.6 33.3zm-2.85-28.6c8 1.33 21 9.72 21 9.72-3.93 3.89-2.17 15.55-2.17 15.55H84c-9.29-10.21-4.22-25.27-4.22-25.27zm123.05 33.5H46.63s-4.4-.38-3.6 3.6l4.1 20.4a7.12 7.12 0 0 0 6.26 3.93h143.54s5.39.34 6.7-5.95l3.9-18.68s1.59-3.3-4.7-3.3zm-1.18 7.16s-2.41 8-3.62 12-6.22 3.82-6.22 3.82H58.55c-4.14 0-5.8-2.53-5.8-2.53s-3.07-10.56-3.81-13.12 3.34-2.32 3.34-2.32h145c5.84.03 4.37 2.15 4.37 2.15zM59.33 141.93s12.26 65 13.5 71.6 5 6.3 5 6.3h94.4c5.21 0 5.5-6.3 5.5-6.3l13.2-71.6zm111.09 65.54s-.26 5.12-4.72 5.12H84.79s-3.22.25-4.29-5.12-11.57-58.2-11.57-58.2h112.8z" class="cls-1"/></symbol><symbol id="bag1" viewBox="0 0 256 256"><defs><style>.cls-1{fill:#1c3e38}</style></defs><path d="M184.79 76.18H166V46.74c0-9.19-9.09-9-9.09-9H99c-9.14 0-8.15 8.15-8.15 8.15v30.29H71.08s-5.4-.83-5.4 4.83v123.53s-.58 4.51 4.56 4.51h116.52a3.34 3.34 0 0 0 3.58-3.58V79.82s-.15-3.64-5.55-3.64zm-34.53-30.32c6.54 0 6.64 6.64 6.64 6.64v23.68H98.44V53c0-6.7 6.59-7.11 6.59-7.11zm31.67 155.2H73.78V84.13h108.15z" class="cls-1"/></symbol><symbol id="bag2" viewBox="0 0 256 256"><path fill="#1c3e38" d="M184.79 76.18H166V46.74c0-9.19-9.09-9-9.09-9H99c-9.14 0-8.15 8.15-8.15 8.15v30.29H71.08s-5.4-.83-5.4 4.83v123.53s-.58 4.51 4.56 4.51h116.52a3.34 3.34 0 0 0 3.58-3.58V79.82s-.15-3.64-5.55-3.64zm-34.53-30.32c6.54 0 6.64 6.64 6.64 6.64v23.68H98.44V53c0-6.7 6.59-7.11 6.59-7.11zm31.67 155.2H73.78V84.13h108.15z"/></symbol><symbol id="facebook" viewBox="0 0 256 256"><defs><style>.cls-1{fill:#1c3e38}</style></defs><path d="M212.65 42.33h-164a3.91 3.91 0 0 0-4.21 4.21v163.34a3.51 3.51 0 0 0 3.79 3.79h84.9a3.08 3.08 0 0 0 3.3-3.3v-69.3a4.31 4.31 0 0 0-4.57-4.57H117.7v-15.84h13.57s4.51.66 4.51-4.51v-7.81s-4-37.92 44-37.92v17.75s-24.66-.24-24.66 18.62v10.86a2.77 2.77 0 0 0 3 3h21.64v16.65h-21.43s-3.13.13-3.13 3.13v68.81a4.12 4.12 0 0 0 4.41 4.41H213a3.25 3.25 0 0 0 3.47-3.46V46.13a3.66 3.66 0 0 0-3.82-3.8zM208 205.48h-44.37v-59.79h18.5s6 .38 6-4.39v-24.42s-.29-4.22-4.22-4.22h-20.3v-6S163.89 96 178 96h6.56a3.43 3.43 0 0 0 3.63-3.64V65.75s-.06-3.3-3.3-3.3h-14.78s-42.41.74-42.41 49.55h-13.48s-4.32.09-4.32 4.32v24.6s.18 4 4 4h13.86v60.58H52.88V50H208z" class="cls-1"/></symbol><symbol id="instagram" viewBox="0 0 256 256"><defs><style>.cls-1{fill:#1c3e38}</style></defs><path d="M171.06 46.32H81.82S41.66 46 41.66 89.57v89.58s3.78 38.79 40.5 38.79h88.9s42.56.34 42.56-41.88V89.22s3.44-42.9-42.56-42.9zm34.88 43.59v84.31c0 36.25-35.56 35.57-35.56 35.57H84.14c-33.38 0-34.41-34.41-34.41-34.41V88.71c0-35.53 34.49-34.5 34.49-34.5h43.45s3.58-.45 42.13-.45 36.14 36.15 36.14 36.15z" class="cls-1"/><path d="M127.85 86.42a45.71 45.71 0 1 0 45.71 45.71 45.71 45.71 0 0 0-45.71-45.71zm-.18 83.13a37.42 37.42 0 1 1 37.42-37.42 37.43 37.43 0 0 1-37.42 37.42z" class="cls-1"/><circle cx="176.9" cy="79.5" r="9.41" class="cls-1"/></symbol><symbol id="heart" viewBox="0 0 256 256"><defs><style>.cls-1{fill:#1c3e38}</style></defs><path d="M128 61.63v.22C98.84 29.69 40.13 37.58 40.13 98.23S128 213 128 213v-.22S215.87 158.66 215.87 98 157.16 29.47 128 61.63zm0 140.69S51 152.44 48.63 101s55.1-63.6 79.37-25.89c24.27-37.71 81.65-25.6 79.37 25.89S128 202.32 128 202.32z" class="cls-1"/></symbol><symbol id="search" viewBox="0 0 256 256"><defs><style>.cls-1{fill:#1c3e38}</style></defs><path d="M157.68 152.89l44.86 44.86s2.79 2.47 5.26 0 0-5.43 0-5.43l-44.62-44.62z" class="cls-1"/><path d="M114.58 38.31a67.48 67.48 0 1 0 67.48 67.48 67.48 67.48 0 0 0-67.48-67.48zm0 127.32c-33 0-59.72-26.95-59.72-60.19s26.74-60.19 59.72-60.19 59.71 27 59.71 60.19-26.7 60.19-59.68 60.19z" class="cls-1"/></symbol><symbol id="twitter" viewBox="0 0 256 256"><defs><style>.cls-1{fill:#1c3e38}</style></defs><path d="M223.73 64.12c-2.53 2 4.64-6 4.31-11.84s-6.17-6.67-9.84-4-9.67 8-19.34 7c0 0-11.46-14-33.5-12.67S121.64 59 122.81 93.14c0 0-43.86 2.83-77.38-40.52 0 0-2-2.81-4.35-2.67s-4.85 1.47-6.69 9.64-3.71 31.65 5.88 42.9c0 0-5.14-2.09-7.37.88s-4.65 24.7 19.17 41.14c0 0-7.61 1.1-5 6.61s11.58 25.81 31.32 28.23c0 0-14.08 13.52-49.38 10 0 0-9.17 1.18-4.67 7.77s177 70.32 190.37-108.3c0 0 16.62-10.16 18-18.66s-6.46-8.04-8.98-6.04zm-64.82 120.94c-50.11 35.08-103.42 13.46-103.42 13.46 19.93-1.55 33.29-11.93 38.3-18.61s-3.58-8.47-3.58-8.47c-23.86-1.67-28.39-16.59-28.39-16.59 21-6.08 8.35-13 8.35-13-27.44-8.11-27.56-27.2-27.56-27.2H53c10.38-2 3.7-8.59 3.7-8.59-22-17.18-12.94-40.37-12.94-40.37 33.79 38.69 75 37.36 82.86 37.36s6.5-6.78 6.5-6.78c-1.94-26.16 12.18-43.6 33.08-44.15s25.33 12.45 30.31 13.56 14.39-2.21 14.39-2.21-8.72 5.67-7.75 10.93 11.21 2.35 11.21 2.35l-9.41 7.61S209 150 158.91 185.06z" class="cls-1"/></symbol></svg>