<svg enable-background="new 0 0 256 256" viewBox="0 0 256 256" xmlns="http://www.w3.org/2000/svg"><path d="m0-6.2h273v288h-273z" fill="#98aab4"/><g fill="#213951"><path d="m113.4 26.4c7.9 1.1 11.9 5.1 11.9 11.9v1.1c0 6.1-3.6 14-10.8 23.8l-1.4-1.1c6.5-9.8 9.8-17.4 9.8-22.8v-2.5c-1-5.1-3.4-7.6-7.2-7.6h-5.1c-9.3 0-21.7 5.9-37.2 17.7-10.5 10.5-15.6 19.4-15.6 26.8v1.1c0 6.7 7.2 10.1 21.7 10.1h24.9c10.4 0 15.5 2.4 15.5 7.2 0 11.1-14.3 22.2-43 33.2-12 3.4-22 5.1-30 5.1h-.4c-10.4 0-16.4-2.2-18.1-6.5v-1.1c.6-5.8 14.6-14.8 42-27.1h1.8c.5.1.7.3.7.7v.4c-.4.7-7.2 3.9-20.2 9.8-10.5 5.2-17.9 10.2-22 15.2v1.4c0 3.1 5.4 4.7 16.3 4.7 19.1 0 38.6-6.4 58.5-19.1 7.4-5.7 11.3-10.7 11.6-14.8v-2.5c0-2.6-4.3-4-13-4l-21.3.4c-18.3 0-27.5-4.7-27.5-14.1 0-10 8.2-21.6 24.6-34.7 13.7-8.5 24.9-12.7 33.5-12.7z"/><path d="m141.1 81.8c1.1 0 2.3 1.1 3.6 3.3-1.4 4.9-2.2 8.4-2.2 10.5.5 1.1 1 1.7 1.4 1.8 3 0 7.2-3.4 12.6-10.1h.7v1.4c-5.1 7.2-9.5 10.8-13.4 10.8-1.9 0-3.1-1.8-3.6-5.4h-.4c-5.2 5.3-8.9 7.9-11.2 7.9-2.2-.5-3.3-1.7-3.3-3.6 0-6.2 4.6-11.6 13.7-16.3zm-13.3 16.3v.7c0 .4.4.7 1.1 1.1 5-1.1 9.6-5.8 13.7-14.1v-.4c0-.4-.5-.8-1.4-1.4-3.5 0-7.3 2.9-11.6 8.7-1.2 2.2-1.8 4-1.8 5.4z"/><path d="m188 29.6h.4c.2 0 .5.4 1.1 1.1-1.7 5.4-2.5 8.5-2.5 9.4v.4h2.2c4.6 0 9.5-.1 14.8-.4 4.6.2 6.9.7 6.9 1.4v.7c0 .2-.4.5-1.1 1.1-.7-.5-2.3-.8-5.1-1.1-6.4.2-12.2.4-17.3.4-1.4 0-3.1 5.8-5.1 17.3-2.7 11.2-4 20.6-4 28.2v4.3c0 1.7.7 2.7 2.2 2.9 2.2-.2 5.6-2.9 10.1-8.3h.4c.5.1.7.3.7.7v.7c-4.8 6-8.6 9-11.6 9-2.7 0-4-2.3-4-6.9v-1.8c0-5.1 1-13.4 2.9-24.9v-.4h-.4c-8.8 25.1-15.2 37.6-19.2 37.6h-.7c-1.9-1.1-2.9-3.4-2.9-6.9v-1.8c0-11 4.2-29.6 12.6-55.6 1.1-1.7 1.9-2.5 2.2-2.5h.7c.5 0 1 .7 1.4 2.2-.2 1.6-.4 3-.4 4v.7h5.4c1.3 0 3.3-.1 6.1-.4 2.4-7.2 3.7-10.9 4.2-11.1zm-16.2 14.8c-3.6 13.7-8.1 29-13.4 45.9v4.3c0 2.7.5 4 1.4 4 3.3-.5 10.5-17 21.7-49.5 1-3.4 1.4-5.3 1.4-5.8v-.3c-5.4.3-9.1.8-11.1 1.4zm-9.4 23.2v.4h.4c4.1-13.4 6.1-21.1 6.1-23.1-1.7 2.4-3.9 9.9-6.5 22.7z"/><path d="m113.4 129.4c7.9 1.1 11.9 5.1 11.9 11.9v1.1c0 6.1-3.6 14-10.8 23.8l-1.4-1.1c6.5-9.8 9.8-17.4 9.8-22.8v-2.5c-1-5.1-3.4-7.6-7.2-7.6h-5.1c-9.3 0-21.7 5.9-37.2 17.7-10.4 10.5-15.5 19.4-15.5 26.7v1.1c0 6.7 7.2 10.1 21.7 10.1h24.9c10.4 0 15.5 2.4 15.5 7.2 0 11.1-14.3 22.2-43 33.2-12 3.4-22 5.1-30 5.1h-.4c-10.4 0-16.4-2.2-18.1-6.5v-1.1c.5-5.7 14.5-14.7 41.9-27h1.8c.5.1.7.3.7.7v.4c-.4.7-7.2 3.9-20.2 9.8-10.5 5.2-17.9 10.2-22 15.2v1.4c0 3.1 5.4 4.7 16.3 4.7 19.1 0 38.6-6.4 58.5-19.2 7.4-5.7 11.3-10.7 11.6-14.8v-2.5c0-2.6-4.3-4-13-4l-21.3.4c-18.3 0-27.5-4.7-27.5-14.1 0-10 8.2-21.6 24.6-34.7 13.7-8.4 24.9-12.6 33.5-12.6z"/><path d="m133.5 186.3h1.1c0 .2.1.6.4 1.1-1.9 5.5-2.9 9.5-2.9 11.9v3.3c.1.5.3.7.7.7 2.1 0 5-3.9 8.7-11.6h1.1c.5.1.7.3.7.7v4.7c0 2.9.5 4.3 1.4 4.3 3.6-3.4 5.4-6 5.4-7.6-.5-2.2-.7-3.6-.7-4.3 0-1.4.8-2.5 2.5-3.3 1.7.8 2.5 1.8 2.5 2.9-.7 2-1.1 3.5-1.1 4.3 0 .4.4.7 1.1 1.1h2.2c1.4 0 3.9-1.6 7.2-4.7h.4c.5.1.7.3.7.7v.7c-3.2 3.9-6.2 5.8-9 5.8h-.4c-.3 0-1.6-.2-4-.7-2.9 5-5.3 7.5-7.2 7.6h-.4c-2.2-1.4-3.3-3.1-3.3-5.1-.4 0-1.9 1.8-4.3 5.4-1.6 1-2.7 1.4-3.3 1.4h-.4c-2.4 0-3.6-1.7-3.6-5.1 1.4-7.8 2.8-12.6 4.5-14.2z"/><path d="m165.1 186.7h1.1c0 .2.1.6.4 1.1-2.2 6.2-3.3 10.7-3.3 13.4v3.3h1.4c2.9 0 8.4-4.7 16.3-14.1h1.1c0 .5.1.7.4.7-7.3 10.6-13.7 15.9-19.2 15.9h-.4c-1.4-.7-2.2-2.2-2.2-4.7 1.9-10.4 3.3-15.6 4.4-15.6zm3.6-8.3h1.1c.5.1.7.3.7.7v.7c-1.4 1.9-2.2 2.9-2.5 2.9h-.4c-1-.4-1.4-1.3-1.4-2.5 0-.3.8-.9 2.5-1.8z"/><path d="m200.5 188.3h.7c1 .4 1.4 1.3 1.4 2.9-1.4 6.1-2.2 9.8-2.2 11.2v1.4c.1.5.3.7.7.7h.4c2.3 0 7.4-4.7 15.2-14.1h.4c.5.1.7.3.7.7v.7c-7.4 10.1-12.9 15.2-16.6 15.2-1.9 0-3-1.4-3.3-4.3v-.4l2.2-11.2h-.7c-1.1.3-4.7 4.4-10.8 12.3h-.7c-.5 0-.7-.2-.7-.7 1-4.3 1.4-7.3 1.4-9h-.7c-.8.4-3.9 3.8-9.4 10.1h-1.1c0-.5-.1-.7-.4-.7 2-8.4 3.5-13.1 4.3-14.1h.7c.5.1.7.3.7.7l-1.4 6.5h.7c3.1-3.6 5.4-5.4 6.9-5.4h.4c1.2.5 1.8 1.7 1.8 3.6v1.4h.4c4.4-5 7.4-7.5 9-7.5z"/></g></svg>