<svg xmlns="http://www.w3.org/2000/svg" id="Layer_1" viewBox="0 0 16 16" width="16" height="16"><defs><style>.cls-1{fill:#e2d4b1}.cls-2{fill:#92b792}.cls-3{fill:#7fa07f}.cls-4{fill:#6d8c6e}</style></defs><circle cx="8" cy="7.99" r="7.29" class="cls-1"/><path d="M3 13.33l5-9.79 5 9.79a7 7 0 0 1-5 1.95 7 7 0 0 1-5-1.95z" class="cls-2"/><path d="M8 15.28l3.82-10.42L13 13.33a6.93 6.93 0 0 1-5 1.95zm0 0L4.18 4.86 3 13.34a7 7 0 0 0 5 1.94z" class="cls-3"/><path d="M3 13.34a6.77 6.77 0 0 0 5 1.94L6 9.89H3.51zm5 1.94a7.42 7.42 0 0 0 5-1.95l-.23-1.68-4.36 2.52z" class="cls-3"/><path d="M10.5 14.84l3.44-6-.49 4a6.64 6.64 0 0 1-2.95 2zm-4.98 0l-3.44-6 .49 4a6.64 6.64 0 0 0 2.95 2z" class="cls-4"/></svg>