<svg id="Layer_1" data-name="Layer 1" xmlns="http://www.w3.org/2000/svg" viewBox="0 0 256 256"><defs><style>.cls-1{fill:#e2d4b1;}.cls-2{fill:#92b792;}.cls-3{fill:#7fa07f;}.cls-4{fill:#6d8c6e;}</style></defs><title>logo</title><circle class="cls-1" cx="128.48" cy="128.48" r="123.46"/><path class="cls-2" d="M44.54,219,128.48,53l83.94,166s-27.3,31.58-83.94,32.94S40.05,213.45,44.54,219Z"/><path class="cls-3" d="M128.48,251.94l64.7-176.55L212.42,219S187.4,249.21,128.48,251.94Z"/><path class="cls-3" d="M128.48,252,63.78,75.39,44.54,219S69.56,249.25,128.48,252Z"/><path class="cls-3" d="M44.54,219S72.91,252,128.48,252L95,160.68H52.36Z"/><path class="cls-3" d="M128.48,252s50.81.93,83.94-33l-3.81-28.46-73.23,42.58Z"/><path class="cls-4" d="M170.81,244.5l58.24-102-8.2,67.85S201.1,235.3,170.81,244.5Z"/><path class="cls-4" d="M86.51,244.5l-58.23-102,8.19,67.85S56.22,235.3,86.51,244.5Z"/></svg>