<svg id="Layer_1" data-name="Layer 1" xmlns="http://www.w3.org/2000/svg" viewBox="0 0 256 256"><defs><style>.cls-1{fill:#e2d4b1;}.cls-1,.cls-2,.cls-3,.cls-4,.cls-5,.cls-6,.cls-7{stroke:#595a5a;stroke-miterlimit:10;stroke-width:4px;}.cls-2{fill:#92b792;}.cls-3{fill:#7fa07f;}.cls-4{fill:#b0a181;}.cls-5{fill:#b1a282;}.cls-6{fill:#91815e;}.cls-7{fill:#6d8c6e;}</style></defs><title>logo</title><circle class="cls-1" cx="128.48" cy="128.48" r="123.46"/><polygon class="cls-2" points="87.82 75.05 127.2 13.71 168.85 75.05 168.85 122.95 87.82 122.95 87.82 75.05"/><polygon class="cls-3" points="67 100.7 53.84 43.1 130.15 114.86 67 114.86 67 100.7"/><polygon class="cls-3" points="190.43 100.7 202.92 43.1 130.45 114.86 190.43 114.86 190.43 100.7"/><polygon class="cls-4" points="53.54 122.95 130.45 122.95 130.45 225.85 72.28 225.85 53.54 122.95"/><polygon class="cls-5" points="204.11 122.95 127.2 122.95 127.2 225.85 185.37 225.85 204.11 122.95"/><rect class="cls-6" x="48.44" y="114.86" width="160.09" height="13.62"/><polygon class="cls-7" points="59.75 114.86 48.44 86.55 92 114.86 59.75 114.86"/><polygon class="cls-7" points="201.1 114.86 212.41 86.55 168.85 114.86 201.1 114.86"/></svg>