<svg xmlns="http://www.w3.org/2000/svg" id="Layer_1" viewBox="0 0 32 32" width="32" height="32"><defs><style>.cls-1{fill:#e2d4b1}.cls-2{fill:#92b792}.cls-3{fill:#7fa07f}.cls-4{fill:#6d8c6e}</style></defs><circle cx="16" cy="15.99" r="14.58" class="cls-1"/><path d="M6.09 26.68L16 7.09l9.91 19.59s-3.22 3.73-9.91 3.89a13.88 13.88 0 0 1-9.91-3.89z" class="cls-2"/><path d="M16 30.57l7.64-20.85 2.27 17S23 30.25 16 30.57zm0 0L8.36 9.72l-2.27 17S9 30.25 16 30.57z" class="cls-3"/><path d="M6.09 26.68A13.45 13.45 0 0 0 16 30.57l-3.95-10.78H7zM16 30.57s6 .11 9.91-3.89l-.45-3.36-8.65 5z" class="cls-3"/><path d="M21 29.69l6.87-12-1 8a13.4 13.4 0 0 1-5.87 4zm-10 0l-6.87-12 1 8a13.33 13.33 0 0 0 5.87 4z" class="cls-4"/></svg>