<svg xmlns="http://www.w3.org/2000/svg" id="Layer_1" viewBox="0 0 64 64" width="64" height="64"><defs><style>.cls-1{fill:#e2d4b1}.cls-2{fill:#92b792}.cls-3{fill:#7fa07f}.cls-4{fill:#6d8c6e}</style></defs><circle cx="32" cy="32" r="30.92" class="cls-1"/><path d="M11 54.66L32 13.1l21 41.56s-6.83 7.91-21 8.25a29.47 29.47 0 0 1-21-8.25z" class="cls-2"/><path d="M32 62.91L48.2 18.7l4.82 36S46.76 62.23 32 62.91zm0 .01L15.8 18.7 11 54.67s6.24 7.57 21 8.25z" class="cls-3"/><path d="M11 54.67s7.1 8.25 21 8.25l-8.38-22.86H12.94zm21 8.25s12.72.23 21-8.26l-1-7.12L33.73 58.2z" class="cls-3"/><path d="M42.6 61.05l14.58-25.54-2 17a28.35 28.35 0 0 1-12.58 8.54zm-21.11 0L6.91 35.51l2.09 17a28.35 28.35 0 0 0 12.49 8.54z" class="cls-4"/></svg>