<svg id="Layer_1" data-name="Layer 1" xmlns="http://www.w3.org/2000/svg" viewBox="0 0 32 32"><defs><style>.cls-1{fill:#e2d4b1;}.cls-2{fill:#92b792;}.cls-3{fill:#7fa07f;}.cls-4{fill:#6d8c6e;}</style></defs><title>logo-32</title><circle class="cls-1" cx="16" cy="15.99" r="14.58"/><path class="cls-2" d="M6.09,26.68,16,7.09l9.91,19.59S22.69,30.41,16,30.57A13.88,13.88,0,0,1,6.09,26.68Z"/><path class="cls-3" d="M16,30.57,23.64,9.72l2.27,17S23,30.25,16,30.57Z"/><path class="cls-3" d="M16,30.57,8.36,9.72l-2.27,17S9,30.25,16,30.57Z"/><path class="cls-3" d="M6.09,26.68A13.45,13.45,0,0,0,16,30.57L12.05,19.79H7Z"/><path class="cls-3" d="M16,30.57s6,.11,9.91-3.89l-.45-3.36-8.65,5Z"/><path class="cls-4" d="M21,29.69l6.87-12-1,8A13.4,13.4,0,0,1,21,29.69Z"/><path class="cls-4" d="M11,29.69l-6.87-12,1,8A13.33,13.33,0,0,0,11,29.69Z"/></svg>