<?xml version="1.0" encoding="utf-8"?>
<!-- Generator: Adobe Illustrator 23.0.1, SVG Export Plug-In . SVG Version: 6.00 Build 0)  -->
<svg version="1.1" xmlns="http://www.w3.org/2000/svg" xmlns:xlink="http://www.w3.org/1999/xlink" x="0px" y="0px"
	 viewBox="0 0 231.7 354.52" style="enable-background:new 0 0 231.7 354.52;" xml:space="preserve">
<style type="text/css">
	.st0{fill:none;stroke:#000000;stroke-width:5;stroke-miterlimit:10;}
</style>
<g id="Layer_1">
</g>
<g id="Layer_2">
	<ellipse class="st0" cx="101.65" cy="268.3" rx="60.74" ry="83.71"/>
	<path class="st0" d="M51.39,221.27c0,0-70.93-21.57-41.92-91.68s80.82,41.43,61.37,66.56"/>
	<path class="st0" d="M131,195c0,0,7.82-57.55,38.65-67.83s48.96-12.09,57.42,12.09c8.46,24.18-6.68,71.18-73.15,86.36"/>
	<path class="st0" d="M148.7,39.53c0,0-11.73-38.32,13.69-37c20.92,1.09-1.86,25.44-10.59,34.03
		C149.92,38.41,148.7,39.53,148.7,39.53z"/>
	<path class="st0" d="M149.97,40.97c0,0,17.99-35.81,35.46-17.3c14.37,15.24-18.92,17.11-31.16,17.29
		C151.63,41.01,149.97,40.97,149.97,40.97z"/>
	<path class="st0" d="M149.97,40.24c0,0-39.55,6.46-34.82-18.55c3.89-20.58,24.96,5.27,32.3,15.07
		C149.03,38.87,149.97,40.24,149.97,40.24z"/>
	<path class="st0" d="M148.1,42.27c0,0,40.03-1.93,32.49,22.38c-6.2,20.01-24.2-8.07-30.38-18.64
		C148.88,43.74,148.1,42.27,148.1,42.27z"/>
	<path class="st0" d="M151.3,39.53c0,0-3.73,39.9-26.74,29.01c-18.93-8.96,11.4-22.82,22.74-27.45
		C149.74,40.1,151.3,39.53,151.3,39.53z"/>
	<path class="st0" d="M158.49,133.58c0,0-38.21-31.06-26.12-61.91"/>
	<path class="st0" d="M174.73,39.18c0,0,40.41,29.85,13.27,82.67"/>
</g>
</svg>
