<svg id="Layer_1" data-name="Layer 1" xmlns="http://www.w3.org/2000/svg" viewBox="0 0 64 64"><defs><style>.cls-1{fill:#e2d4b1;}.cls-2{fill:#92b792;}.cls-3{fill:#7fa07f;}.cls-4{fill:#6d8c6e;}</style></defs><title>logo-64</title><circle class="cls-1" cx="32" cy="32" r="30.92"/><path class="cls-2" d="M11,54.66,32,13.1,53,54.66s-6.83,7.91-21,8.25A29.47,29.47,0,0,1,11,54.66Z"/><path class="cls-3" d="M32,62.91,48.2,18.7l4.82,36S46.76,62.23,32,62.91Z"/><path class="cls-3" d="M32,62.92,15.8,18.7,11,54.67S17.24,62.24,32,62.92Z"/><path class="cls-3" d="M11,54.67s7.1,8.25,21,8.25L23.62,40.06H12.94Z"/><path class="cls-3" d="M32,62.92s12.72.23,21-8.26l-1-7.12L33.73,58.2Z"/><path class="cls-4" d="M42.6,61.05,57.18,35.51l-2,17A28.35,28.35,0,0,1,42.6,61.05Z"/><path class="cls-4" d="M21.49,61.05,6.91,35.51,9,52.51A28.35,28.35,0,0,0,21.49,61.05Z"/></svg>