<svg id="Layer_1" data-name="Layer 1" xmlns="http://www.w3.org/2000/svg" viewBox="0 0 64 64"><defs><style>.cls-1{fill:#e2d4b1;}.cls-1,.cls-2,.cls-3,.cls-4,.cls-5,.cls-6,.cls-7{stroke:#595a5a;stroke-miterlimit:10;}.cls-2{fill:#92b792;}.cls-3{fill:#7fa07f;}.cls-4{fill:#b0a181;}.cls-5{fill:#b1a282;}.cls-6{fill:#91815e;}.cls-7{fill:#6d8c6e;}</style></defs><title>logo-64</title><circle class="cls-1" cx="32.06" cy="32.06" r="30.52"/><polygon class="cls-2" points="22.01 18.85 31.74 3.69 42.04 18.85 42.04 30.69 22.01 30.69 22.01 18.85"/><polygon class="cls-3" points="16.86 25.19 13.61 10.96 32.47 28.69 16.86 28.69 16.86 25.19"/><polygon class="cls-3" points="47.37 25.19 50.46 10.96 32.55 28.69 47.37 28.69 47.37 25.19"/><polygon class="cls-4" points="13.54 30.69 32.55 30.69 32.55 56.13 18.17 56.13 13.54 30.69"/><polygon class="cls-5" points="50.75 30.69 31.74 30.69 31.74 56.13 46.12 56.13 50.75 30.69"/><rect class="cls-6" x="12.27" y="28.69" width="39.57" height="3.37"/><polygon class="cls-7" points="15.07 28.69 12.27 21.7 23.04 28.69 15.07 28.69"/><polygon class="cls-7" points="50.01 28.69 52.81 21.7 42.04 28.69 50.01 28.69"/></svg>