<svg height="64" viewBox="0 0 64 64" width="64" xmlns="http://www.w3.org/2000/svg"><circle cx="32" cy="32" fill="#e2d4b1" r="30.92"/><path d="m11 54.66 21-41.56 21 41.56s-6.83 7.91-21 8.25a29.47 29.47 0 0 1 -21-8.25z" fill="#92b792"/><path d="m32 62.91 16.2-44.21 4.82 36s-6.26 7.53-21.02 8.21zm0 .01-16.2-44.22-4.8 35.97s6.24 7.57 21 8.25z" fill="#7fa07f"/><path d="m11 54.67s7.1 8.25 21 8.25l-8.38-22.86h-10.68zm21 8.25s12.72.23 21-8.26l-1-7.12-18.27 10.66z" fill="#7fa07f"/><path d="m42.6 61.05 14.58-25.54-2 17a28.35 28.35 0 0 1 -12.58 8.54zm-21.11 0-14.58-25.54 2.09 17a28.35 28.35 0 0 0 12.49 8.54z" fill="#6d8c6e"/></svg>