<?xml version="1.0" encoding="utf-8"?>
<!-- Generator: Adobe Illustrator 24.0.0, SVG Export Plug-In . SVG Version: 6.00 Build 0)  -->
<svg version="1.1" id="Layer_1" xmlns="http://www.w3.org/2000/svg" xmlns:xlink="http://www.w3.org/1999/xlink" x="0px" y="0px"
	 viewBox="0 0 64 64" style="enable-background:new 0 0 64 64;" xml:space="preserve">
<style type="text/css">
	.st0{fill:none;stroke:#213951;stroke-miterlimit:10;}
</style>
<g>
	<path class="st0" d="M33.3,44.3c0,0,4.3,2.9,7.7-2c3.5-4.8,6.7-6.8,7.1-11.7c0.4-5,2.8-11.2,7.6-13.6s2.6-3.4,0-3.5
		s-7.9,0.4-10.7,4.8c-2.8,4.4-3.5,5.6-3.5,5.6"/>
	<path class="st0" d="M43.9,25.9c0,0-4.7-4.3-7.6-8.2s-6.7-2.7-5.9,2.5s2.9,11.9,5.3,10.4s1.3-4.3,0.1-7.5"/>
	<path class="st0" d="M30.6,17.3c0,0-4.3-3.1-5.9,2.1c-1.6,5.2,3.9,14.3,5.9,13.5s2.2-2.6,2.2-4.5"/>
	<path class="st0" d="M25,18.5c0,0-5.3-2.5-5.9,2.3C18.6,25.7,24,33,25.7,32.4c1.7-0.6,1.3-2.8,1.3-2.8"/>
	<path class="st0" d="M19.2,20.9c0,0-11.9-11.6-13.2-9.3S17.4,26,18.3,31.7c0.9,5.7,3.6,16.5,9.1,13.5"/>
	<path class="st0" d="M24.4,45.4c0,0-1.3,8.3,0.8,8.9c0,0,6.6,3,12,0c0,0,1.2-6,0.4-9.4"/>
	<path class="st0" d="M30.1,33c0,0-1,3.2,0.9,5.9"/>
</g>
</svg>
