<?xml version="1.0" encoding="utf-8"?>
<!-- Generator: Adobe Illustrator 23.0.1, SVG Export Plug-In . SVG Version: 6.00 Build 0)  -->
<svg version="1.1" id="Layer_1" xmlns="http://www.w3.org/2000/svg" xmlns:xlink="http://www.w3.org/1999/xlink" x="0px" y="0px"
	 viewBox="0 0 216.4 216.4" style="enable-background:new 0 0 216.4 216.4;" xml:space="preserve">
<style type="text/css">
	.st0{fill:#E2D4B1;stroke:#595A5A;stroke-width:2;stroke-miterlimit:10;}
	.st1{fill:#92B792;stroke:#595A5A;stroke-miterlimit:10;}
	.st2{fill:#7FA07F;stroke:#595A5A;stroke-miterlimit:10;}
	.st3{fill:#B0A181;stroke:#595A5A;stroke-miterlimit:10;}
	.st4{fill:#B1A282;stroke:#595A5A;stroke-miterlimit:10;}
	.st5{fill:#91815E;stroke:#595A5A;stroke-miterlimit:10;}
	.st6{fill:#6D8C6E;stroke:#595A5A;stroke-miterlimit:10;}
</style>
<circle class="st0" cx="108.2" cy="108.2" r="107.2"/>
<polygon class="st1" points="72.89,61.81 107.09,8.54 143.25,61.81 143.25,103.39 72.89,103.39 "/>
<polygon class="st2" points="54.81,84.08 43.39,34.06 109.65,96.37 54.81,96.37 "/>
<polygon class="st2" points="161.99,84.08 172.84,34.06 109.91,96.37 161.99,96.37 "/>
<polygon class="st3" points="43.13,103.39 109.91,103.39 109.91,192.75 59.4,192.75 "/>
<polygon class="st4" points="173.87,103.39 107.09,103.39 107.09,192.75 157.6,192.75 "/>
<rect x="38.69" y="96.37" class="st5" width="139.01" height="11.83"/>
<polygon class="st6" points="48.52,96.37 38.69,71.79 76.52,96.37 "/>
<polygon class="st6" points="171.26,96.37 181.08,71.79 143.25,96.37 "/>
</svg>
