<?xml version="1.0" encoding="utf-8"?>
<!-- Generator: Adobe Illustrator 23.0.3, SVG Export Plug-In . SVG Version: 6.00 Build 0)  -->
<svg version="1.1" id="Layer_1" xmlns="http://www.w3.org/2000/svg" xmlns:xlink="http://www.w3.org/1999/xlink" x="0px" y="0px"
	 viewBox="0 0 256 256" style="enable-background:new 0 0 256 256;" xml:space="preserve">
<style type="text/css">
	.st0{fill:#E2D4B1;}
	.st1{fill:#92B792;}
	.st2{fill:#7FA07F;}
	.st3{fill:#6D8C6E;}
</style>
<circle class="st0" cx="127.6" cy="128.7" r="125.7"/>
<path class="st1" d="M42.2,220.8l85.4-169l85.4,169c0,0-27.8,32.2-85.4,33.5C95.8,254.9,65.1,242.9,42.2,220.8z"/>
<path class="st2" d="M127.6,254.3l65.9-179.7L213,221C213,221,187.6,251.6,127.6,254.3z M127.6,254.4L61.7,74.6L42.2,220.8
	C42.2,220.8,67.6,251.6,127.6,254.4z"/>
<path class="st2" d="M42.2,220.8c0,0,28.9,33.5,85.4,33.5l-34.1-92.9H50.1L42.2,220.8z M127.6,254.4c0,0,51.7,0.9,85.4-33.6
	l-4.1-28.9l-74.3,43.3L127.6,254.4z"/>
<path class="st3" d="M170.7,246.8L230,142.9l-8.1,69.1C208.3,228.1,190.6,240.1,170.7,246.8z M84.8,246.8L25.6,142.9l8.5,69.1
	C47.5,228,65.1,240,84.8,246.8z"/>
</svg>
