<svg xmlns="http://www.w3.org/2000/svg" id="Layer_1" viewBox="0 0 256 256" width="256" height="256"><defs><style>.cls-1{fill:#e2d4b1}.cls-2{fill:#92b792}.cls-3{fill:#7fa07f}.cls-4{fill:#6d8c6e}</style></defs><circle cx="128.48" cy="128.48" r="123.46" class="cls-1"/><path d="M44.54 219l83.94-166 83.94 166s-27.3 31.58-83.94 32.94S40.05 213.45 44.54 219z" class="cls-2"/><path d="M128.48 251.94l64.7-176.55L212.42 219s-25.02 30.21-83.94 32.94zm0 .06L63.78 75.39 44.54 219s25.02 30.25 83.94 33z" class="cls-3"/><path d="M44.54 219s28.37 33 83.94 33L95 160.68H52.36zm83.94 33s50.81.93 83.94-33l-3.81-28.46-73.23 42.58z" class="cls-3"/><path d="M170.81 244.5l58.24-102-8.2 67.85s-19.75 24.95-50.04 34.15zm-84.3 0l-58.23-102 8.19 67.85s19.75 24.95 50.04 34.15z" class="cls-4"/></svg>