<?xml version="1.0" encoding="utf-8"?>
<!-- Generator: Adobe Illustrator 24.0.0, SVG Export Plug-In . SVG Version: 6.00 Build 0)  -->
<svg version="1.1" id="Layer_1" xmlns="http://www.w3.org/2000/svg" xmlns:xlink="http://www.w3.org/1999/xlink" x="0px" y="0px"
	 viewBox="0 0 16 16" style="enable-background:new 0 0 16 16;" xml:space="preserve">
<style type="text/css">
	.st0{fill:none;stroke:#213951;stroke-width:0.5;stroke-miterlimit:10;}
</style>
<g>
	<path class="st0" d="M8.3,10.8c0,0,1.1,0.7,2-0.5s1.7-1.7,1.8-3s0.7-2.9,1.9-3.5s0.7-0.9,0-0.9c-0.7,0-2,0.1-2.7,1.2
		c-0.7,1.1-0.9,1.4-0.9,1.4"/>
	<path class="st0" d="M11,6.1C11,6.1,9.8,5,9.1,4S7.4,3.3,7.6,4.6c0.2,1.3,0.7,3,1.4,2.7s0.3-1.1,0-1.9"/>
	<path class="st0" d="M7.6,3.9c0,0-1.1-0.8-1.5,0.5s1,3.6,1.5,3.4c0.5-0.2,0.6-0.7,0.6-1.1"/>
	<path class="st0" d="M6.2,4.2c0,0-1.3-0.6-1.5,0.6C4.5,6,5.9,7.9,6.3,7.7C6.8,7.6,6.7,7,6.7,7"/>
	<path class="st0" d="M4.7,4.8c0,0-3-3-3.4-2.4s2.9,3.7,3.2,5.1C4.7,9,5.4,11.8,6.8,11"/>
	<path class="st0" d="M6,11.1c0,0-0.3,2.1,0.2,2.3c0,0,1.7,0.8,3,0c0,0,0.3-1.5,0.1-2.4"/>
	<path class="st0" d="M7.5,7.9c0,0-0.3,0.8,0.2,1.5"/>
</g>
</svg>
