<svg id="Layer_1" data-name="Layer 1" xmlns="http://www.w3.org/2000/svg" viewBox="0 0 16 16"><defs><style>.cls-1{fill:#e2d4b1;}.cls-1,.cls-2,.cls-3,.cls-4,.cls-5,.cls-6,.cls-7{stroke:#595a5a;stroke-miterlimit:10;stroke-width:0.25px;}.cls-2{fill:#92b792;}.cls-3{fill:#7fa07f;}.cls-4{fill:#b0a181;}.cls-5{fill:#b1a282;}.cls-6{fill:#91815e;}.cls-7{fill:#6d8c6e;}</style></defs><title>logo-16</title><circle class="cls-1" cx="7.96" cy="8.01" r="7.64"/><polygon class="cls-2" points="5.45 4.71 7.88 0.91 10.46 4.71 10.46 7.67 5.45 7.67 5.45 4.71"/><polygon class="cls-3" points="4.16 6.29 3.34 2.73 8.07 7.17 4.16 7.17 4.16 6.29"/><polygon class="cls-3" points="11.8 6.29 12.57 2.73 8.09 7.17 11.8 7.17 11.8 6.29"/><polygon class="cls-4" points="3.33 7.67 8.09 7.67 8.09 14.04 4.49 14.04 3.33 7.67"/><polygon class="cls-5" points="12.65 7.67 7.88 7.67 7.88 14.04 11.49 14.04 12.65 7.67"/><rect class="cls-6" x="3.01" y="7.17" width="9.91" height="0.84"/><polygon class="cls-7" points="3.71 7.17 3.01 5.42 5.71 7.17 3.71 7.17"/><polygon class="cls-7" points="12.46 7.17 13.16 5.42 10.46 7.17 12.46 7.17"/></svg>