<?xml version="1.0" encoding="utf-8"?>
<!-- Generator: Adobe Illustrator 24.0.0, SVG Export Plug-In . SVG Version: 6.00 Build 0)  -->
<svg version="1.1" id="Layer_1" xmlns="http://www.w3.org/2000/svg" xmlns:xlink="http://www.w3.org/1999/xlink" x="0px" y="0px"
	 viewBox="0 0 32 32" style="enable-background:new 0 0 32 32;" xml:space="preserve">
<style type="text/css">
	.st0{fill:none;stroke:#213951;stroke-miterlimit:10;}
</style>
<g>
	<path class="st0" d="M16.8,22.4c0,0,2.2,1.5,4.1-1s3.5-3.6,3.7-6.2c0.2-2.6,1.5-5.9,4-7.2s1.4-1.8,0-1.9c-1.4-0.1-4.2,0.2-5.7,2.6
		s-1.8,3-1.8,3"/>
	<path class="st0" d="M22.4,12.7c0,0-2.5-2.3-4-4.3c-1.5-2.1-3.5-1.4-3.1,1.3c0.4,2.8,1.5,6.3,2.8,5.5c1.3-0.8,0.7-2.3,0.1-4"/>
	<path class="st0" d="M15.4,8.1c0,0-2.3-1.6-3.1,1.1s2.1,7.6,3.1,7.1c1-0.4,1.2-1.4,1.2-2.4"/>
	<path class="st0" d="M12.4,8.8c0,0-2.8-1.3-3.1,1.2c-0.3,2.5,2.6,6.4,3.4,6.1c0.9-0.3,0.7-1.5,0.7-1.5"/>
	<path class="st0" d="M9.3,10c0,0-6.3-6.2-7-4.9s6.1,7.7,6.6,10.7c0.5,3,1.9,8.7,4.8,7.1"/>
	<path class="st0" d="M12.1,23c0,0-0.7,4.4,0.4,4.7c0,0,3.5,1.6,6.3,0c0,0,0.7-3.1,0.2-4.9"/>
	<path class="st0" d="M15.1,16.4c0,0-0.5,1.7,0.5,3.1"/>
</g>
</svg>
