<svg id="Layer_1" data-name="Layer 1" xmlns="http://www.w3.org/2000/svg" viewBox="0 0 32 32"><defs><style>.cls-1{fill:#e2d4b1;}.cls-1,.cls-2,.cls-3,.cls-4,.cls-5,.cls-6,.cls-7{stroke:#595a5a;stroke-miterlimit:10;stroke-width:0.5px;}.cls-2{fill:#92b792;}.cls-3{fill:#7fa07f;}.cls-4{fill:#b0a181;}.cls-5{fill:#b1a282;}.cls-6{fill:#91815e;}.cls-7{fill:#6d8c6e;}</style></defs><title>logo-32</title><circle class="cls-1" cx="16.34" cy="15.86" r="14.67"/><polygon class="cls-2" points="11.51 9.51 16.19 2.22 21.13 9.51 21.13 15.2 11.51 15.2 11.51 9.51"/><polygon class="cls-3" points="9.03 12.56 7.47 5.71 16.54 14.24 9.03 14.24 9.03 12.56"/><polygon class="cls-3" points="23.7 12.56 25.18 5.71 16.57 14.24 23.7 14.24 23.7 12.56"/><polygon class="cls-4" points="7.43 15.2 16.57 15.2 16.57 27.43 9.66 27.43 7.43 15.2"/><polygon class="cls-5" points="25.32 15.2 16.19 15.2 16.19 27.43 23.1 27.43 25.32 15.2"/><rect class="cls-6" x="6.83" y="14.24" width="19.02" height="1.62"/><polygon class="cls-7" points="8.17 14.24 6.83 10.88 12 14.24 8.17 14.24"/><polygon class="cls-7" points="24.96 14.24 26.31 10.88 21.13 14.24 24.96 14.24"/></svg>