<?xml version="1.0" encoding="utf-8"?>
<!-- Generator: Adobe Illustrator 23.0.2, SVG Export Plug-In . SVG Version: 6.00 Build 0)  -->
<svg version="1.1" id="Layer_1" xmlns="http://www.w3.org/2000/svg" xmlns:xlink="http://www.w3.org/1999/xlink" x="0px" y="0px"
	 viewBox="0 0 256 256" style="enable-background:new 0 0 256 256;" xml:space="preserve">
<style type="text/css">
	.st0{fill:#FFFFFF;}
</style>
<path class="st0" d="M181.7,81.8H74c0,0-9.8,0.4-11.6,11.3L50.2,200.6c0,0-0.7,13.5,10,13.8h135.5c0,0,10.9-0.9,9.8-14.6L193.3,91.6
	C193.3,91.6,193.1,83.3,181.7,81.8z M96,76.5h7.4V56.2c0,0,2.7-20.9,24.6-21.8c0,0,22.3-1.1,24.3,22v20.1h7.4v-19
	c0,0-1.5-29.5-31.8-29.5c0,0-27.3-2.2-31.8,28.4L96,76.5z"/>
</svg>
