<svg xmlns="http://www.w3.org/2000/svg" id="Layer_1" viewBox="0 0 256 256" width="256" height="256"><defs><style>.cls-1{fill:#fff}</style></defs><path d="M193.63 149.54H62l13.49 71.59s.56 6.34 5 6.34h94.41s4.41 1.37 5.51-6.34zm11.84-32.77H49.34s-4.41-.28-3.58 3.58l4.13 20.38a6.75 6.75 0 0 0 4.68 3.85h145.11s4.91.7 6.34-4L210.3 120s1.25-3.88-4.83-3.23zm-96.04-4.87h36.92s5.58-19.55-18.35-37.64c0 0-21.49 12.06-18.57 37.64zm-4.75 0s-2.37-8.22 2.56-20.46c0 0-10-7.86-27.41-12.8 0 0-6.58 18.28 5.66 33.26zm-25.03 0s-5.85-6.39-6.22-23.2c0 0-16.44-4.39-29.24-4.76a45.42 45.42 0 0 0 20.11 28z" class="cls-1"/><path d="M73.8 83.94l2-8.58a2.72 2.72 0 0 1 3.36-1.75l8 2.54a45.33 45.33 0 0 1-3-11.47s-15.63-6.9-20.49-7.61c0 0-2.32 16 2.82 25.13zM109.16 87s8.84-12.19 14.53-15.79a95 95 0 0 0-31.78-30.29s-8.44 19 1.61 37.72A77.86 77.86 0 0 1 109.16 87zM128 68.73s6.83-11.17 14.52-17.38c0 0-5.58-15-14.52-22.84 0 0-10.68 10.43-14.52 22.72.03 0 10.6 8.77 14.52 17.5zM146.91 87s7.43-6.23 15.5-8.33A44.42 44.42 0 0 0 164 40.92s-23.34 14.4-31.9 30.29c.03 0 10.49 10.55 14.81 15.79zm24.81-22.37s14.53-6.08 20.36-7.32c0 0 3.23 13-2.73 25l-7 1.61-2.35-8.24a1.9 1.9 0 0 0-2.61-2.11l-8.81 2.48s2.52-2.61 3.14-11.42z" class="cls-1"/><path d="M148.51 91.44a78.66 78.66 0 0 1 27.56-12.8s6.58 19.1-5.59 33.26h-19.24s2.76-14.13-2.73-20.46zM182.4 89s16.38-4.72 29.17-5.09c0 0-4 18.95-19.74 28h-15.39S184.88 99 182.4 89z" class="cls-1"/></svg>