<svg xmlns="http://www.w3.org/2000/svg" id="Layer_1" viewBox="0 0 256 256" width="256" height="256"><defs><style>.cls-1{fill:#1d3e39}</style></defs><path d="M89.23 33.33S80.94 52.09 90.83 71a65.81 65.81 0 0 1 15.7 8.4s8.35-12.5 14.5-15.8c-.03.03-13.19-19.91-31.8-30.27zm16 41.44a60.72 60.72 0 0 0-12-6.4c-7.63-14.27-1.22-28.76-1.22-28.76a73.32 73.32 0 0 1 24.25 23.11c-4.26 2.75-10.98 12.05-10.98 12.05zm24.2-11.14c6.15 3.3 14.5 15.8 14.5 15.8a65.81 65.81 0 0 1 15.7-8.4c9.89-18.94 1.6-37.7 1.6-37.7-18.6 10.36-31.8 30.3-31.8 30.3zm4.69-.91a73.25 73.25 0 0 1 24.26-23.11s6.4 14.49-1.22 28.76a60.51 60.51 0 0 0-12 6.4s-6.69-9.3-11.04-12.05zm-52.59-5.79S66.36 50.27 61 49.33c0 0-2.09 17.28 2.8 25.1l7.3 1.9 2-8.6s1.07-2.53 3.4-1.8l8 2.5s-2.91-7.62-2.97-11.5zm-7 5.3a3.18 3.18 0 0 0-4.25 2.19l-1.35 7.88-3.7-1.3c-2.29-4.36-2.4-18.88-2.4-18.88 1.44.07 16.31 6.24 16.31 6.24 0 1.44 1.72 6.17 1.72 6.17a54.93 54.93 0 0 0-6.31-2.3zm91.61 5.6l8-2.5c2.33-.73 3.4 1.8 3.4 1.8l2 8.6 7.3-1.9c4.89-7.82 2.8-25.1 2.8-25.1-5.33.94-20.5 7.6-20.5 7.6-.06 3.88-3 11.5-3 11.5zm3.68-3.83s1.71-4.73 1.71-6.16c0 0 14.87-6.17 16.31-6.24 0 0-.11 14.52-2.4 18.88l-3.7 1.27-1.37-7.88a3.19 3.19 0 0 0-4.25-2.2 57.52 57.52 0 0 0-6.3 2.33zm-44.49-43.07s-12.43 13.3-14.5 22.7c0 0 12.32 11.16 14.5 17.5 0 0 9.52-15 14.5-17.4 0 0-6.21-15.93-14.5-22.8zm0 35.17c-1.2-4.18-10.87-13.1-10.87-13.1 2.47-9.25 10.87-17 10.87-17 5.36 3 10.87 17.09 10.87 17.09-3.73 1.91-10.87 13.01-10.87 13.01zm-.1 10.63a38.87 38.87 0 0 0-18.5 37.6h36.9s4.28-21.64-18.4-37.6zm13.84 33.66h-27.56a29 29 0 0 1 13.81-28.09c16.95 11.93 13.75 28.09 13.75 28.09zm40.66-18.96c3.48 9.62-5.9 22.9-5.9 22.9h15.4c16-9.91 19.7-28 19.7-28-7.67-.65-29.2 5.1-29.2 5.1zm10.08 19.14h-11.25s6.85-9.7 4.31-16.73c0 0 15.72-4.2 21.33-3.72 0 0-2.72 13.22-14.39 20.45zM41.93 76.35s3.73 18.1 19.7 28H77s-9.38-13.27-5.9-22.9c.03 0-21.49-5.75-29.17-5.1zm4.73 3.79C52.27 79.67 68 83.87 68 83.87c-2.54 7 4.31 16.73 4.31 16.73H61.05c-11.66-7.24-14.39-20.46-14.39-20.46z" class="cls-1"/><path d="M173.43 71c-10.52 1.75-27.6 12.8-27.6 12.8 5.11 5.12 2.8 20.5 2.8 20.5h19.2c12.28-13.44 5.6-33.3 5.6-33.3zm-7 30h-14.58s1.76-11.67-2.12-15.56c0 0 13-8.39 21-9.72-.04.01 5.03 15.07-4.3 25.28zm-83.8 3.33h19.2s-2.31-15.38 2.8-20.5c0 0-17.08-11-27.6-12.8-.03-.03-6.68 19.83 5.6 33.3zm-2.85-28.6c8 1.33 21 9.72 21 9.72-3.93 3.89-2.17 15.55-2.17 15.55H84c-9.29-10.21-4.22-25.27-4.22-25.27zm123.05 33.5H46.63s-4.4-.38-3.6 3.6l4.1 20.4a7.12 7.12 0 0 0 6.26 3.93h143.54s5.39.34 6.7-5.95l3.9-18.68s1.59-3.3-4.7-3.3zm-1.18 7.16s-2.41 8-3.62 12-6.22 3.82-6.22 3.82H58.55c-4.14 0-5.8-2.53-5.8-2.53s-3.07-10.56-3.81-13.12 3.34-2.32 3.34-2.32h145c5.84.03 4.37 2.15 4.37 2.15zM59.33 141.93s12.26 65 13.5 71.6 5 6.3 5 6.3h94.4c5.21 0 5.5-6.3 5.5-6.3l13.2-71.6zm111.09 65.54s-.26 5.12-4.72 5.12H84.79s-3.22.25-4.29-5.12-11.57-58.2-11.57-58.2h112.8z" class="cls-1"/></svg>