<svg xmlns="http://www.w3.org/2000/svg" id="Layer_1" width="256" height="256" viewBox="0 0 256 256"><style>.st0{fill:#1d3e39}</style><path d="M50.6 109.2l22.3 104.3s.9 6.3 5 6.3h94.4s4.3.4 5.5-6.3 21.9-104.3 21.9-104.3H50.6zm119.2 98c-1.1 5.7-4.7 5.4-4.7 5.4H84.7c-3.5 0-4.3-5.4-4.3-5.4l-19-88.9h127c0 .1-17.5 83.2-18.6 88.9zm-58.7-98L54.7 51.7l11.8 57.5h3.7L61 64.7l43.7 44.5zm28.5 0L196 51.7l-11.8 57.5h-3.7l9.1-44.5-43.6 44.5z" class="st0"/><path d="M125 20.6l39.1 63.7 3.7-3.8L125 10.9 84.8 82.4l3.4 3.5zm-45.5 9.3l24.4 18.5 1.8-3.2-28.3-21.6-7.9 43.3 3 3z" class="st0"/><path d="M171.3 29.9L147 48.4l-1.8-3.2 28.2-21.6 7.9 43.3-3 3zM61.5 109.2L46.9 40l72.6 69.2h-14.8L61 64.7l9.2 44.5z" class="st0"/><path d="M189.1 109.2L203.7 40l-72.6 69.2h14.8l43.6-44.5-9.1 44.5z" class="st0"/><path d="M82.9 74.3L125 2.4l44.4 70.3-7.7 7.8L125 20.6 90.6 81.7zM66.7 58.8l7.5-41.6L104.1 38l-4.3 7.3-20.3-15.4-6.2 35.3z" class="st0"/><path d="M184.1 58.8l-7.6-41.6L146.6 38l4.3 7.3 20.3-15.4 6.2 35.3z" class="st0"/></svg>