<?xml version="1.0" encoding="utf-8"?>
<!-- Generator: Adobe Illustrator 23.0.3, SVG Export Plug-In . SVG Version: 6.00 Build 0)  -->
<svg version="1.1" id="Layer_1" xmlns="http://www.w3.org/2000/svg" xmlns:xlink="http://www.w3.org/1999/xlink" x="0px" y="0px"
	 viewBox="0 0 256 256" style="enable-background:new 0 0 256 256;" xml:space="preserve">
<style type="text/css">
	.st0{fill:#1D3E39;}
</style>
<g>
	<path class="st0" d="M50.6,109.2l22.3,104.3c0,0,0.9,6.3,5,6.3s94.4,0,94.4,0s4.3,0.4,5.5-6.3s21.9-104.3,21.9-104.3H50.6z
		 M169.8,207.2c-1.1,5.7-4.7,5.4-4.7,5.4s-76.9,0-80.4,0s-4.3-5.4-4.3-5.4l-19-88.9h127C188.4,118.4,170.9,201.5,169.8,207.2z"/>
	<polygon class="st0" points="111.1,109.2 54.7,51.7 66.5,109.2 70.2,109.2 61,64.7 104.7,109.2 	"/>
	<polygon class="st0" points="139.6,109.2 196,51.7 184.2,109.2 180.5,109.2 189.6,64.7 146,109.2 	"/>
	<polygon class="st0" points="125,20.6 164.1,84.3 167.8,80.5 125,10.9 84.8,82.4 88.2,85.9 	"/>
	<polygon class="st0" points="79.5,29.9 103.9,48.4 105.7,45.2 77.4,23.6 69.5,66.9 72.5,69.9 	"/>
	<polygon class="st0" points="171.3,29.9 147,48.4 145.2,45.2 173.4,23.6 181.3,66.9 178.3,69.9 	"/>
</g>
<polygon class="st0" points="61.5,109.2 46.9,40 119.5,109.2 104.7,109.2 61,64.7 70.2,109.2 "/>
<polygon class="st0" points="189.1,109.2 203.7,40 131.1,109.2 145.9,109.2 189.5,64.7 180.4,109.2 "/>
<polygon class="st0" points="82.9,74.3 125,2.4 169.4,72.7 161.7,80.5 125,20.6 90.6,81.7 "/>
<polygon class="st0" points="66.7,58.8 74.2,17.2 104.1,38 99.8,45.3 79.5,29.9 73.3,65.2 "/>
<polygon class="st0" points="184.1,58.8 176.5,17.2 146.6,38 150.9,45.3 171.2,29.9 177.4,65.2 "/>
</svg>
