<svg xmlns="http://www.w3.org/2000/svg" id="Layer_1" viewBox="0 0 256 256" width="256" height="256"><defs><style>.cls-1{fill:#1c3e38}</style></defs><path d="M212.65 42.33h-164a3.91 3.91 0 0 0-4.21 4.21v163.34a3.51 3.51 0 0 0 3.79 3.79h84.9a3.08 3.08 0 0 0 3.3-3.3v-69.3a4.31 4.31 0 0 0-4.57-4.57H117.7v-15.84h13.57s4.51.66 4.51-4.51v-7.81s-4-37.92 44-37.92v17.75s-24.66-.24-24.66 18.62v10.86a2.77 2.77 0 0 0 3 3h21.64v16.65h-21.43s-3.13.13-3.13 3.13v68.81a4.12 4.12 0 0 0 4.41 4.41H213a3.25 3.25 0 0 0 3.47-3.46V46.13a3.66 3.66 0 0 0-3.82-3.8zM208 205.48h-44.37v-59.79h18.5s6 .38 6-4.39v-24.42s-.29-4.22-4.22-4.22h-20.3v-6S163.89 96 178 96h6.56a3.43 3.43 0 0 0 3.63-3.64V65.75s-.06-3.3-3.3-3.3h-14.78s-42.41.74-42.41 49.55h-13.48s-4.32.09-4.32 4.32v24.6s.18 4 4 4h13.86v60.58H52.88V50H208z" class="cls-1"/></svg>