<svg xmlns="http://www.w3.org/2000/svg" id="Layer_1" viewBox="0 0 256 256" width="256" height="256"><defs><style>.cls-1{fill:#666766}</style></defs><path d="M125.4 253.06v-88.48h-22.12s-5.87-1.36-5.87-5.42v-29.34a5.46 5.46 0 0 1 5.87-5.42h22.12V88.74s-.9-42 46.95-42h27.09s5.42.9 5.42 5.42V76.1s-.45 6.32-5 6.32h-19.38s-14.22.45-14.22 14.22l-.68 27.36 32.51-.45s7.39-.69 7.39 8l-3.14 26.36s-1.28 6.27-6.27 6.27h-30.49v88.93h57.22s30.46-1.7 30.46-30.46V39.28S255 4.1 218.07 4.1H32.58S1.77 5.88 1.77 37v184s.47 31.7 31.69 31.7 91.94.36 91.94.36z" class="cls-1"/></svg>