<svg xmlns="http://www.w3.org/2000/svg" id="Layer_1" viewBox="0 0 256 256" width="256" height="256"><style>.st0{fill:#1c3e38}</style><path d="M128.1 202.3zM128 75s0 .1 0 0c0 .1 0 0 0 0zm0-13.4v.2C98.8 29.7 40.1 37.6 40.1 98.2 40.1 158.9 128 213 128 213v-.2s87.9-54.1 87.9-114.8-58.7-68.5-87.9-36.4zm0 13.4s0 .1 0 0c0 .1 0 0 0 0zm0 127.3zm.1 0zm-.1 0z" class="st0"/><path d="M128.1 75c-.1 0-.1.1 0 0-.1.1-.1 0 0 0zm0 127.2c0 .1 0 .1 0 0 0 .1 0 .1 0 0z" class="st0"/><path d="M128.1 75c-.1 0-.1.1 0 0-.1.1-.1 0 0 0zm0 127.2c0 .1 0 .1 0 0 0 .1 0 .1 0 0z" class="st0"/></svg>