<svg xmlns="http://www.w3.org/2000/svg" id="Layer_1" viewBox="0 0 256 256" width="256" height="256"><defs><style>.cls-1{fill:#fff}</style></defs><path d="M227.72 126.7s5.16 4.8 1.81 8.15l-7.79 8.32s-3.17 3.9-7.06 0l-83.4-86.82s-4-5.27-9.31 0l-82 86.22a5.08 5.08 0 0 1-7.84 1.22l-8.33-9.31s-2.2-3.9 1.47-6.48l97.44-102.27s3.92-4.9 8.33 0l36.25 37.72V32.83a5 5 0 0 1 5.14-4.41h14a4.38 4.38 0 0 1 4.66 4.66v54.86z" class="cls-1"/><path d="M129.79 64.86s-2.91-3.76-6 0l-72.38 76a12 12 0 0 0-4.1 8.9v62.33s.26 6.67 6.67 6.67h43.9s6.26-.77 6.44-6.78v-50.5s.55-6.74 6.2-6.74H144s6.56.73 6.56 6.56v50.83s.4 6.58 6.58 6.58h43.53a7 7 0 0 0 5.65-7.12v-61.77s.73-3.87-4-8.86z" class="cls-1"/></svg>