<svg xmlns="http://www.w3.org/2000/svg" id="Layer_1" viewBox="0 0 256 256" width="256" height="256"><defs><style>.cls-1{fill:#1c3e38}</style></defs><path d="M171.06 46.32H81.82S41.66 46 41.66 89.57v89.58s3.78 38.79 40.5 38.79h88.9s42.56.34 42.56-41.88V89.22s3.44-42.9-42.56-42.9zm34.88 43.59v84.31c0 36.25-35.56 35.57-35.56 35.57H84.14c-33.38 0-34.41-34.41-34.41-34.41V88.71c0-35.53 34.49-34.5 34.49-34.5h43.45s3.58-.45 42.13-.45 36.14 36.15 36.14 36.15z" class="cls-1"/><path d="M127.85 86.42a45.71 45.71 0 1 0 45.71 45.71 45.71 45.71 0 0 0-45.71-45.71zm-.18 83.13a37.42 37.42 0 1 1 37.42-37.42 37.43 37.43 0 0 1-37.42 37.42z" class="cls-1"/><circle cx="176.9" cy="79.5" r="9.41" class="cls-1"/></svg>