<svg xmlns="http://www.w3.org/2000/svg" id="Layer_1" width="256" height="256" viewBox="0 0 256 256"><defs><style>.cls-1{fill:#666766}</style></defs><path d="M202.3 3.94H55S5.17 8.8 5.17 53.78V194s-5.08 58 55.19 58H202.3s48.6-6 48.6-57.06V57.44s2.92-45.38-48.6-53.5zm17.48 164.6c-3.33 49.46-51.36 51.83-51.36 51.83H87.1c-47.55-1-50.88-50.88-50.88-50.88V88.65C40.5 38.24 87.1 36.81 87.1 36.81h81.32c48 0 51.36 48.51 51.36 48.51z" class="cls-1"/><path d="M166.15 51.83H90.78s-38.73 0-38.73 40.8v74S56 205.35 89.1 205.35h77.05s37.8-1.76 37.8-37.79V92s-2.06-40.17-37.8-40.17zM128 174.57a46 46 0 1 1 46-46 46 46 0 0 1-46 46zm51.08-85.21a11.21 11.21 0 1 1 11.21-11.21 11.21 11.21 0 0 1-11.21 11.21z" class="cls-1"/><circle cx="128" cy="128.16" r="27.44" class="cls-1"/></svg>