<svg xmlns="http://www.w3.org/2000/svg" id="Layer_1" viewBox="0 0 256 256" width="256" height="256"><defs><style>.cls-1{fill:#1c3e38}</style></defs><path d="M223.73 64.12c-2.53 2 4.64-6 4.31-11.84s-6.17-6.67-9.84-4-9.67 8-19.34 7c0 0-11.46-14-33.5-12.67S121.64 59 122.81 93.14c0 0-43.86 2.83-77.38-40.52 0 0-2-2.81-4.35-2.67s-4.85 1.47-6.69 9.64-3.71 31.65 5.88 42.9c0 0-5.14-2.09-7.37.88s-4.65 24.7 19.17 41.14c0 0-7.61 1.1-5 6.61s11.58 25.81 31.32 28.23c0 0-14.08 13.52-49.38 10 0 0-9.17 1.18-4.67 7.77s177 70.32 190.37-108.3c0 0 16.62-10.16 18-18.66s-6.46-8.04-8.98-6.04zm-64.82 120.94c-50.11 35.08-103.42 13.46-103.42 13.46 19.93-1.55 33.29-11.93 38.3-18.61s-3.58-8.47-3.58-8.47c-23.86-1.67-28.39-16.59-28.39-16.59 21-6.08 8.35-13 8.35-13-27.44-8.11-27.56-27.2-27.56-27.2H53c10.38-2 3.7-8.59 3.7-8.59-22-17.18-12.94-40.37-12.94-40.37 33.79 38.69 75 37.36 82.86 37.36s6.5-6.78 6.5-6.78c-1.94-26.16 12.18-43.6 33.08-44.15s25.33 12.45 30.31 13.56 14.39-2.21 14.39-2.21-8.72 5.67-7.75 10.93 11.21 2.35 11.21 2.35l-9.41 7.61S209 150 158.91 185.06z" class="cls-1"/></svg>