<svg xmlns="http://www.w3.org/2000/svg" id="Layer_1" viewBox="0 0 256 256" width="256" height="256"><defs><style>.cls-1{fill:#666766}</style></defs><path d="M239.21 4.1H18.74S4.1 4.43 4.1 18.55v220.3s2.64 13.38 13.78 13.38h221.33s12.5-2.35 12.5-13.13V17.42a14.4 14.4 0 0 0-12.5-13.32zM189.5 96.81c.28 50.56-34.08 74.3-34.08 74.3-54.42 41.34-103.63 5.31-103.63 5.31C82.24 178.09 97 163 97 163c-25.69-1.4-28.77-21.23-28.77-21.23 10.9.84 12.29-1.39 12.29-1.39-24-5-23.33-30.45-23.33-30.45 8.52 3.91 13.28 3.07 13.28 3.07-22.86-18.14-9.18-41-9.18-41 29.61 34.64 65.08 32.12 65.08 32.12C122.46 80.05 141.73 70 141.73 70 166.87 58.55 180 75.58 180 75.58c6.7.28 20.39-6.42 20.39-6.42 1.4 7.54-12 16.2-12 16.2 5.59 1.12 16.48-4.19 16.48-4.19-.57 6.43-15.37 15.64-15.37 15.64z" class="cls-1"/></svg>